<?xml version="1.0" standalone="no"?>
<!DOCTYPE svg PUBLIC "-//W3C//DTD SVG 20010904//EN"
 "http://www.w3.org/TR/2001/REC-SVG-20010904/DTD/svg10.dtd">
<svg version="1.0" xmlns="http://www.w3.org/2000/svg"
 width="512.000000pt" height="512.000000pt" viewBox="0 0 512.000000 512.000000"
 preserveAspectRatio="xMidYMid meet">
<metadata>
Created by potrace 1.16, written by Peter Selinger 2001-2019
</metadata>
<g transform="translate(0.000000,512.000000) scale(0.100000,-0.100000)"
fill="#000000" stroke="none">
<path d="M453 5101 c-217 -63 -381 -230 -437 -448 -15 -56 -16 -260 -14 -2115
l3 -2053 26 -72 c67 -181 205 -319 389 -385 l65 -23 1097 0 1098 0 37 38 38
37 3 978 2 979 -23 34 c-44 66 -58 69 -379 69 l-288 0 0 210 0 210 288 0 c319
0 333 3 379 69 20 30 21 42 26 409 4 414 7 433 70 562 44 90 168 214 260 258
121 58 150 62 484 62 l303 0 0 -210 0 -210 -289 0 c-283 0 -289 0 -322 -23
-18 -12 -44 -38 -56 -56 -23 -34 -23 -36 -23 -396 0 -499 -29 -465 402 -465
l288 0 0 -210 0 -210 -287 0 c-322 0 -336 -3 -380 -69 l-23 -34 0 -974 0 -974
39 -42 40 -42 683 0 683 0 72 26 c181 67 319 205 385 389 l23 65 0 2075 0
2075 -26 72 c-67 181 -205 319 -389 385 l-65 23 -2060 2 c-1942 2 -2064 1
-2122 -16z m4154 -312 c78 -29 153 -104 182 -182 l21 -58 0 -1989 0 -1989 -21
-58 c-29 -78 -104 -153 -182 -182 -56 -20 -71 -21 -582 -21 l-525 0 0 760 0
759 299 3 c426 4 391 -42 391 518 0 452 0 451 -69 497 -33 23 -39 23 -327 23
l-294 0 0 160 0 160 282 0 c261 0 285 1 323 20 26 13 49 34 63 59 22 38 22 46
22 448 0 409 0 410 -22 443 -13 18 -36 43 -51 54 -27 20 -42 21 -380 24 -404
4 -527 -5 -661 -48 -300 -97 -530 -350 -602 -665 -12 -52 -17 -145 -21 -362
l-5 -293 -293 0 c-427 0 -395 42 -395 -520 0 -446 0 -448 63 -494 27 -20 43
-21 328 -24 l299 -3 0 -759 0 -760 -940 0 c-935 0 -940 0 -997 21 -78 29 -153
104 -182 182 l-21 58 0 1989 0 1989 22 58 c29 78 95 146 173 178 l60 25 1992
0 1992 0 58 -21z"/>
</g>
</svg>
