<?xml version="1.0" standalone="no"?>
<!DOCTYPE svg PUBLIC "-//W3C//DTD SVG 20010904//EN"
 "http://www.w3.org/TR/2001/REC-SVG-20010904/DTD/svg10.dtd">
<svg version="1.0" xmlns="http://www.w3.org/2000/svg"
 width="512.000000pt" height="512.000000pt" viewBox="0 0 512.000000 512.000000"
 preserveAspectRatio="xMidYMid meet">
<metadata>
Created by potrace 1.16, written by Peter Selinger 2001-2019
</metadata>
<g transform="translate(0.000000,512.000000) scale(0.100000,-0.100000)"
fill="#000000" stroke="none">
<path d="M2236 5104 c-447 -57 -883 -240 -1246 -523 -120 -93 -308 -277 -411
-404 -289 -352 -483 -786 -554 -1237 -23 -141 -31 -504 -15 -656 29 -282 117
-587 245 -849 79 -163 131 -248 238 -395 87 -118 112 -148 246 -283 355 -363
811 -610 1311 -710 196 -40 336 -50 584 -44 240 6 371 23 577 76 830 215 1508
848 1780 1661 100 299 134 539 126 878 -10 421 -90 738 -281 1107 -207 402
-514 742 -891 988 -323 210 -692 344 -1075 392 -154 19 -482 18 -634 -1z m706
-322 c884 -165 1581 -817 1803 -1686 80 -313 87 -688 20 -1005 -136 -644 -560
-1202 -1156 -1520 -76 -41 -280 -131 -296 -131 -1 0 -3 164 -3 364 0 386 -6
454 -50 554 -11 24 -20 48 -20 52 0 4 35 17 78 29 108 32 327 141 419 210 170
127 280 258 367 436 93 191 126 334 127 556 1 274 -72 530 -206 729 l-37 55
11 86 c15 115 13 287 -3 379 -50 275 -186 361 -450 285 -109 -32 -182 -65
-329 -149 l-117 -67 -97 20 c-173 35 -264 44 -443 44 -179 0 -270 -9 -442 -44
l-98 -20 -125 72 c-209 119 -354 169 -490 169 -87 0 -138 -22 -188 -80 -90
-106 -129 -351 -96 -609 l11 -86 -37 -55 c-134 -199 -207 -455 -206 -729 1
-222 34 -365 127 -556 87 -178 197 -309 367 -436 93 -69 311 -178 420 -210 62
-18 77 -26 73 -38 -27 -77 -56 -173 -63 -206 -7 -35 -13 -41 -48 -51 -57 -18
-154 -17 -207 2 -65 22 -118 72 -190 176 -142 207 -311 318 -485 318 l-66 0 6
-53 c4 -28 9 -96 13 -149 l7 -98 36 -6 c82 -15 154 -76 243 -206 109 -160 232
-254 383 -293 62 -16 205 -21 269 -10 l36 7 0 -196 c0 -108 -2 -196 -3 -196
-2 0 -48 18 -102 40 -492 200 -913 589 -1155 1065 -165 324 -240 640 -240
1006 0 94 7 221 16 291 116 898 791 1667 1667 1897 95 25 196 44 342 65 17 2
136 3 265 1 181 -3 260 -8 342 -23z m-1342 -948 c41 -19 133 -70 204 -112 122
-72 132 -76 190 -77 34 0 118 12 188 28 265 57 506 56 776 -3 196 -44 200 -43
358 53 123 75 245 135 307 151 46 12 53 12 62 -3 5 -9 11 -73 13 -143 4 -102
0 -147 -17 -232 -27 -130 -22 -154 54 -259 125 -176 187 -366 186 -582 0 -130
-6 -175 -33 -275 -38 -141 -104 -255 -216 -371 -181 -190 -412 -292 -792 -349
-80 -12 -151 -23 -158 -26 -12 -3 34 -76 196 -311 84 -120 84 -122 89 -574 l5
-397 -28 -6 c-135 -27 -189 -31 -424 -31 -235 0 -289 4 -424 31 l-28 6 5 397
c5 452 5 454 89 574 162 235 208 308 196 311 -7 3 -78 14 -158 26 -380 57
-611 159 -792 349 -83 86 -113 129 -164 231 -102 207 -114 488 -32 740 28 88
66 160 132 255 78 110 82 131 55 261 -17 87 -20 129 -17 232 3 70 8 134 12
143 10 22 67 10 166 -37z"/>
</g>
</svg>
