<?xml version="1.0" standalone="no"?>
<!DOCTYPE svg PUBLIC "-//W3C//DTD SVG 20010904//EN"
 "http://www.w3.org/TR/2001/REC-SVG-20010904/DTD/svg10.dtd">
<svg version="1.0" xmlns="http://www.w3.org/2000/svg"
 width="512.000000pt" height="512.000000pt" viewBox="0 0 512.000000 512.000000"
 preserveAspectRatio="xMidYMid meet">
<metadata>
Created by potrace 1.16, written by Peter Selinger 2001-2019
</metadata>
<g transform="translate(0.000000,512.000000) scale(0.100000,-0.100000)"
fill="#000000" stroke="none">
<path d="M1835 5114 c-517 -24 -636 -39 -816 -97 -504 -166 -847 -557 -958
-1094 -55 -265 -56 -290 -56 -1363 0 -1073 1 -1098 56 -1363 111 -537 454
-928 958 -1094 239 -78 442 -93 1350 -100 655 -5 1104 4 1366 28 513 46 918
297 1159 714 63 110 89 187 80 239 -20 120 -94 181 -214 174 -100 -5 -135 -32
-195 -150 -62 -121 -117 -198 -201 -279 -175 -167 -390 -262 -656 -288 -422
-43 -1869 -43 -2296 0 -266 26 -481 121 -656 288 -211 203 -308 461 -335 902
-14 213 -14 1645 0 1858 28 445 124 701 340 906 174 165 389 259 649 284 439
43 1897 43 2304 0 262 -28 472 -120 645 -284 216 -205 314 -465 341 -912 5
-92 10 -489 10 -881 0 -779 -2 -752 58 -815 107 -113 302 -64 342 84 9 31 11
268 7 873 -5 884 -7 934 -58 1179 -96 462 -356 810 -758 1012 -197 99 -396
145 -706 166 -155 10 -1594 21 -1760 13z"/>
<path d="M3802 4179 c-108 -53 -162 -144 -162 -269 0 -125 54 -216 162 -269
52 -27 72 -31 138 -31 66 0 86 4 138 31 108 53 162 143 162 270 0 177 -123
299 -301 299 -65 0 -85 -4 -137 -31z"/>
<path d="M2320 3794 c-508 -92 -916 -504 -1006 -1014 -19 -110 -19 -330 0
-440 79 -446 407 -827 836 -970 176 -59 440 -78 621 -45 393 73 724 320 898
669 95 191 131 347 131 566 0 219 -36 375 -131 566 -174 349 -505 596 -898
669 -103 19 -345 18 -451 -1z m385 -405 c272 -48 527 -258 627 -515 50 -129
60 -194 56 -344 -4 -120 -8 -146 -37 -230 -56 -166 -154 -305 -282 -401 -102
-77 -149 -103 -257 -139 -300 -100 -629 -21 -856 206 -97 96 -162 202 -208
334 -32 92 -33 99 -33 260 0 161 1 168 33 260 46 132 111 238 208 334 199 200
469 284 749 235z"/>
</g>
</svg>
