<?xml version="1.0" standalone="no"?>
<!DOCTYPE svg PUBLIC "-//W3C//DTD SVG 20010904//EN"
 "http://www.w3.org/TR/2001/REC-SVG-20010904/DTD/svg10.dtd">
<svg version="1.0" xmlns="http://www.w3.org/2000/svg"
 width="512.000000pt" height="512.000000pt" viewBox="0 0 512.000000 512.000000"
 preserveAspectRatio="xMidYMid meet">
<metadata>
Created by potrace 1.16, written by Peter Selinger 2001-2019
</metadata>
<g transform="translate(0.000000,512.000000) scale(0.100000,-0.100000)"
fill="#000000" stroke="none">
<path d="M1157 5104 c-1 -1 -52 -4 -114 -8 -147 -8 -182 -13 -278 -38 -219
-58 -394 -169 -525 -333 -153 -194 -210 -363 -231 -694 -15 -237 -7 -2995 10
-3111 52 -375 249 -656 563 -805 107 -51 220 -82 355 -97 170 -19 3077 -19
3236 0 438 53 751 308 876 714 19 63 37 175 46 278 9 115 4 3024 -5 3125 -12
134 -15 148 -47 255 -49 166 -130 297 -260 421 -91 87 -140 123 -240 173 -133
67 -281 100 -489 111 -89 5 -2892 13 -2897 9z m317 -1039 c269 -70 361 -407
165 -604 -179 -179 -479 -124 -587 107 -23 48 -27 70 -27 147 0 76 4 99 27
146 77 167 247 249 422 204z m2036 -1001 c132 -33 271 -113 366 -210 62 -63
141 -212 181 -340 l27 -89 4 -707 3 -708 -310 0 -311 0 0 568 c0 323 -4 593
-10 627 -13 78 -61 175 -107 216 -21 17 -62 44 -93 58 -50 24 -66 26 -175 26
-103 0 -129 -4 -180 -24 -71 -29 -150 -103 -184 -174 -50 -104 -51 -113 -51
-724 l0 -573 -310 0 -310 0 0 1020 0 1020 290 0 290 0 0 -147 0 -147 50 56
c123 138 310 237 505 268 79 12 243 4 325 -16z m-1810 -1034 l0 -1020 -315 0
-315 0 0 1020 0 1020 315 0 315 0 0 -1020z"/>
</g>
</svg>
