<?xml version="1.0" standalone="no"?>
<!DOCTYPE svg PUBLIC "-//W3C//DTD SVG 20010904//EN"
 "http://www.w3.org/TR/2001/REC-SVG-20010904/DTD/svg10.dtd">
<svg version="1.0" xmlns="http://www.w3.org/2000/svg"
 width="512.000000pt" height="512.000000pt" viewBox="0 0 512.000000 512.000000"
 preserveAspectRatio="xMidYMid meet">
<metadata>
Created by potrace 1.16, written by Peter Selinger 2001-2019
</metadata>
<g transform="translate(0.000000,512.000000) scale(0.100000,-0.100000)"
fill="#000000" stroke="none">
<path d="M2350 5109 c-508 -58 -1019 -291 -1387 -632 -437 -405 -699 -897
-790 -1487 -25 -162 -25 -539 0 -700 39 -244 114 -501 203 -689 24 -51 44 -99
44 -105 0 -6 -93 -274 -206 -596 -218 -620 -234 -677 -204 -752 38 -95 116
-148 217 -148 53 0 134 26 660 210 330 115 604 210 610 210 6 0 53 -20 104
-44 188 -89 445 -164 689 -203 161 -25 538 -25 700 0 587 91 1087 356 1484
787 286 310 499 719 590 1130 74 336 76 730 7 1065 -82 391 -271 776 -534
1090 -400 475 -970 783 -1597 861 -125 15 -465 17 -590 3z m645 -323 c471 -88
855 -287 1179 -612 325 -324 524 -709 611 -1179 26 -138 32 -488 10 -640 -69
-499 -292 -939 -651 -1284 -655 -632 -1617 -788 -2439 -398 -201 96 -159 102
-815 -129 l-535 -189 189 535 c231 656 225 614 129 815 -256 539 -281 1167
-68 1710 290 744 939 1260 1735 1380 131 19 530 14 655 -9z"/>
<path d="M1813 3980 c-80 -16 -126 -50 -295 -219 -140 -140 -173 -179 -198
-232 -56 -121 -64 -250 -26 -419 78 -341 324 -728 706 -1110 265 -265 510
-449 770 -579 329 -163 577 -194 774 -94 65 33 375 339 405 401 50 100 47 214
-9 302 -35 54 -390 408 -440 438 -71 42 -204 45 -282 7 -18 -10 -70 -53 -115
-98 l-82 -80 -68 41 c-237 141 -474 378 -615 615 l-41 68 80 82 c45 45 88 97
98 115 41 84 35 214 -15 292 -36 56 -404 422 -445 442 -30 16 -125 39 -148 37
-7 -1 -31 -5 -54 -9z m283 -720 c-172 -176 -171 -245 12 -525 168 -259 368
-459 627 -628 147 -95 219 -130 282 -135 86 -7 133 17 243 124 l96 94 157
-158 157 -158 -142 -141 c-120 -118 -149 -142 -182 -148 -178 -34 -532 130
-871 401 -141 113 -376 348 -489 489 -271 339 -435 693 -401 871 6 33 30 62
148 182 l141 142 158 -157 158 -157 -94 -96z"/>
</g>
</svg>
